# MagicaVoxel @ Ephtracy

# group
o 

# material
mtllib Push1.mtl
usemtl palette

# normals
vn 0 1 0
vn 0 -1 0
vn 1 0 0
vn -1 0 0
vn 0 0 1
vn 0 0 -1

# texcoords
vt 0.982422 0.5
vt 0.994141 0.5

# verts
v -0.6 0.8 0.7
v -1.6 0.8 0.7
v -0.6 0.8 -0.8
v -1.6 0.8 -0.8
v 1.9 0.7 0.6
v 1.7 0.7 0.6
v 0.7 0.7 0.6
v -0.6 0.7 0.6
v -1.6 0.7 0.6
v -1.8 0.7 0.6
v 1.9 0.7 -0.7
v 1.7 0.7 -0.7
v 0.7 0.7 -0.7
v -0.6 0.7 -0.7
v -1.6 0.7 -0.7
v -1.8 0.7 -0.7
v 1.7 0.6 0.5
v 1.4 0.6 0.5
v 1 0.6 0.5
v 0.7 0.6 0.5
v 1.7 0.6 -0.6
v 1.4 0.6 -0.6
v 1 0.6 -0.6
v 0.7 0.6 -0.6
v 1.4 0.5 0.4
v 1 0.5 0.4
v 1.4 0.5 -0.5
v 1 0.5 -0.5
v 1.4 -0.2 0.2
v 1 -0.2 0.2
v 1.1 -0.2 0.1
v 1 -0.2 0.1
v 1.4 -0.2 -0.3
v 1.1 -0.2 -0.3
v 1.8 -0.3 0.3
v 1.4 -0.3 0.3
v 1.8 -0.3 -0.4
v 1.4 -0.3 -0.4
v 1.9 -0.4 0.4
v 1.8 -0.4 0.4
v 1.9 -0.4 -0.5
v 1.8 -0.4 -0.5
v 1.9 0.5 0.4
v 1.8 0.5 0.4
v 1.9 0.5 -0.5
v 1.8 0.5 -0.5
v 1.8 0.4 0.3
v 1.4 0.4 0.3
v 1.8 0.4 -0.4
v 1.4 0.4 -0.4
v 1.4 0.3 0.2
v 1 0.3 0.2
v 1.1 0.3 0.1
v 1 0.3 0.1
v 1.4 0.3 -0.3
v 1.1 0.3 -0.3
v 1.4 -0.4 0.4
v 1 -0.4 0.4
v 1.4 -0.4 -0.5
v 1 -0.4 -0.5
v 1.7 -0.5 0.5
v 1.4 -0.5 0.5
v 1 -0.5 0.5
v 0.7 -0.5 0.5
v 1.7 -0.5 -0.6
v 1.4 -0.5 -0.6
v 1 -0.5 -0.6
v 0.7 -0.5 -0.6
v 1.9 -0.6 0.6
v 1.7 -0.6 0.6
v 0.7 -0.6 0.6
v -0.6 -0.6 0.6
v -1.6 -0.6 0.6
v -1.8 -0.6 0.6
v 1.9 -0.6 -0.7
v 1.7 -0.6 -0.7
v 0.7 -0.6 -0.7
v -0.6 -0.6 -0.7
v -1.6 -0.6 -0.7
v -1.8 -0.6 -0.7
v -0.6 -0.7 0.7
v -1.6 -0.7 0.7
v -0.6 -0.7 -0.8
v -1.6 -0.7 -0.8
v 1.9 0.7 0.6
v 1.9 0.7 -0.7
v 1.9 0.5 0.4
v 1.9 0.5 -0.5
v 1.9 -0.4 0.4
v 1.9 -0.4 -0.5
v 1.9 -0.6 0.6
v 1.9 -0.6 -0.7
v 1.8 0.5 0.4
v 1.8 0.5 -0.5
v 1.8 0.4 0.3
v 1.8 0.4 -0.4
v 1.8 -0.3 0.3
v 1.8 -0.3 -0.4
v 1.8 -0.4 0.4
v 1.8 -0.4 -0.5
v 1.4 0.4 0.3
v 1.4 0.4 -0.4
v 1.4 0.3 0.2
v 1.4 0.3 -0.3
v 1.4 -0.2 0.2
v 1.4 -0.2 -0.3
v 1.4 -0.3 0.3
v 1.4 -0.3 -0.4
v 1.1 0.3 0.1
v 1.1 0.3 -0.3
v 1.1 -0.2 0.1
v 1.1 -0.2 -0.3
v 1 0.6 0.5
v 1 0.6 -0.6
v 1 0.5 0.4
v 1 0.5 -0.5
v 1 0.3 0.2
v 1 0.3 0.1
v 1 -0.2 0.2
v 1 -0.2 0.1
v 1 -0.4 0.4
v 1 -0.4 -0.5
v 1 -0.5 0.5
v 1 -0.5 -0.6
v 0.7 0.7 0.6
v 0.7 0.7 -0.7
v 0.7 0.6 0.5
v 0.7 0.6 -0.6
v 0.7 -0.5 0.5
v 0.7 -0.5 -0.6
v 0.7 -0.6 0.6
v 0.7 -0.6 -0.7
v -0.6 0.8 0.7
v -0.6 0.8 -0.8
v -0.6 0.7 0.6
v -0.6 0.7 -0.7
v -0.6 -0.6 0.6
v -0.6 -0.6 -0.7
v -0.6 -0.7 0.7
v -0.6 -0.7 -0.8
v 1.7 0.7 0.6
v 1.7 0.7 -0.7
v 1.7 0.6 0.5
v 1.7 0.6 -0.6
v 1.7 -0.5 0.5
v 1.7 -0.5 -0.6
v 1.7 -0.6 0.6
v 1.7 -0.6 -0.7
v 1.4 0.6 0.5
v 1.4 0.6 -0.6
v 1.4 0.5 0.4
v 1.4 0.5 -0.5
v 1.4 -0.4 0.4
v 1.4 -0.4 -0.5
v 1.4 -0.5 0.5
v 1.4 -0.5 -0.6
v -1.6 0.8 0.7
v -1.6 0.8 -0.8
v -1.6 0.7 0.6
v -1.6 0.7 -0.7
v -1.6 -0.6 0.6
v -1.6 -0.6 -0.7
v -1.6 -0.7 0.7
v -1.6 -0.7 -0.8
v -1.8 0.7 0.6
v -1.8 0.7 -0.7
v -1.8 -0.6 0.6
v -1.8 -0.6 -0.7
v -0.6 0.8 0.7
v -0.6 -0.7 0.7
v -1.6 0.8 0.7
v -1.6 -0.7 0.7
v 1.9 0.7 0.6
v 1.9 -0.6 0.6
v 1.7 0.7 0.6
v 1.7 -0.6 0.6
v 0.7 0.7 0.6
v 0.7 -0.6 0.6
v -0.6 0.7 0.6
v -0.6 -0.6 0.6
v -1.6 0.7 0.6
v -1.6 -0.6 0.6
v -1.8 0.7 0.6
v -1.8 -0.6 0.6
v 1.7 0.6 0.5
v 1.7 -0.5 0.5
v 1.4 0.6 0.5
v 1.4 -0.5 0.5
v 1 0.6 0.5
v 1 -0.5 0.5
v 0.7 0.6 0.5
v 0.7 -0.5 0.5
v 1.4 0.5 0.4
v 1.4 -0.4 0.4
v 1 0.5 0.4
v 1 -0.4 0.4
v 1.1 0.3 0.1
v 1.1 -0.2 0.1
v 1 0.3 0.1
v 1 -0.2 0.1
v 1.4 0.3 -0.3
v 1.4 -0.2 -0.3
v 1.1 0.3 -0.3
v 1.1 -0.2 -0.3
v 1.8 0.4 -0.4
v 1.8 -0.3 -0.4
v 1.4 0.4 -0.4
v 1.4 -0.3 -0.4
v 1.9 0.5 -0.5
v 1.9 -0.4 -0.5
v 1.8 0.5 -0.5
v 1.8 -0.4 -0.5
v 1.9 0.5 0.4
v 1.9 -0.4 0.4
v 1.8 0.5 0.4
v 1.8 -0.4 0.4
v 1.8 0.4 0.3
v 1.8 -0.3 0.3
v 1.4 0.4 0.3
v 1.4 -0.3 0.3
v 1.4 0.3 0.2
v 1.4 -0.2 0.2
v 1 0.3 0.2
v 1 -0.2 0.2
v 1.4 0.5 -0.5
v 1.4 -0.4 -0.5
v 1 0.5 -0.5
v 1 -0.4 -0.5
v 1.7 0.6 -0.6
v 1.7 -0.5 -0.6
v 1.4 0.6 -0.6
v 1.4 -0.5 -0.6
v 1 0.6 -0.6
v 1 -0.5 -0.6
v 0.7 0.6 -0.6
v 0.7 -0.5 -0.6
v 1.9 0.7 -0.7
v 1.9 -0.6 -0.7
v 1.7 0.7 -0.7
v 1.7 -0.6 -0.7
v 0.7 0.7 -0.7
v 0.7 -0.6 -0.7
v -0.6 0.7 -0.7
v -0.6 -0.6 -0.7
v -1.6 0.7 -0.7
v -1.6 -0.6 -0.7
v -1.8 0.7 -0.7
v -1.8 -0.6 -0.7
v -0.6 0.8 -0.8
v -0.6 -0.7 -0.8
v -1.6 0.8 -0.8
v -1.6 -0.7 -0.8

# faces
f 3/1/1 2/1/1 1/1/1
f 4/1/1 2/1/1 3/1/1
f 11/1/1 6/1/1 5/1/1
f 12/1/1 6/1/1 11/1/1
f 13/1/1 8/1/1 7/1/1
f 14/1/1 8/1/1 13/1/1
f 15/1/1 10/1/1 9/1/1
f 16/1/1 10/1/1 15/1/1
f 21/1/1 18/1/1 17/1/1
f 22/1/1 18/1/1 21/1/1
f 23/1/1 20/1/1 19/1/1
f 24/1/1 20/1/1 23/1/1
f 27/1/1 26/1/1 25/1/1
f 28/1/1 26/1/1 27/1/1
f 31/2/1 30/2/1 29/2/1
f 32/2/1 30/2/1 31/2/1
f 33/2/1 31/2/1 29/2/1
f 34/2/1 31/2/1 33/2/1
f 37/2/1 36/2/1 35/2/1
f 38/2/1 36/2/1 37/2/1
f 41/1/1 40/1/1 39/1/1
f 42/1/1 40/1/1 41/1/1
f 43/1/2 44/1/2 45/1/2
f 45/1/2 44/1/2 46/1/2
f 47/2/2 48/2/2 49/2/2
f 49/2/2 48/2/2 50/2/2
f 51/2/2 52/2/2 53/2/2
f 53/2/2 52/2/2 54/2/2
f 51/2/2 53/2/2 55/2/2
f 55/2/2 53/2/2 56/2/2
f 57/1/2 58/1/2 59/1/2
f 59/1/2 58/1/2 60/1/2
f 61/1/2 62/1/2 65/1/2
f 65/1/2 62/1/2 66/1/2
f 63/1/2 64/1/2 67/1/2
f 67/1/2 64/1/2 68/1/2
f 69/1/2 70/1/2 75/1/2
f 75/1/2 70/1/2 76/1/2
f 71/1/2 72/1/2 77/1/2
f 77/1/2 72/1/2 78/1/2
f 73/1/2 74/1/2 79/1/2
f 79/1/2 74/1/2 80/1/2
f 81/1/2 82/1/2 83/1/2
f 83/1/2 82/1/2 84/1/2
f 87/1/3 86/1/3 85/1/3
f 88/1/3 86/1/3 87/1/3
f 89/1/3 87/1/3 85/1/3
f 90/1/3 86/1/3 88/1/3
f 91/1/3 89/1/3 85/1/3
f 91/1/3 90/1/3 89/1/3
f 92/1/3 86/1/3 90/1/3
f 92/1/3 90/1/3 91/1/3
f 95/2/3 94/2/3 93/2/3
f 96/2/3 94/2/3 95/2/3
f 97/2/3 95/2/3 93/2/3
f 98/2/3 94/2/3 96/2/3
f 99/2/3 97/2/3 93/2/3
f 99/2/3 98/2/3 97/2/3
f 100/2/3 94/2/3 98/2/3
f 100/2/3 98/2/3 99/2/3
f 103/2/3 102/2/3 101/2/3
f 104/2/3 102/2/3 103/2/3
f 105/2/3 103/2/3 101/2/3
f 106/2/3 102/2/3 104/2/3
f 107/2/3 105/2/3 101/2/3
f 107/2/3 106/2/3 105/2/3
f 108/2/3 102/2/3 106/2/3
f 108/2/3 106/2/3 107/2/3
f 111/2/3 110/2/3 109/2/3
f 112/2/3 110/2/3 111/2/3
f 115/1/3 114/1/3 113/1/3
f 116/1/3 114/1/3 115/1/3
f 119/2/3 118/2/3 117/2/3
f 120/2/3 118/2/3 119/2/3
f 121/1/3 115/1/3 113/1/3
f 122/1/3 114/1/3 116/1/3
f 123/1/3 121/1/3 113/1/3
f 123/1/3 122/1/3 121/1/3
f 124/1/3 114/1/3 122/1/3
f 124/1/3 122/1/3 123/1/3
f 127/1/3 126/1/3 125/1/3
f 128/1/3 126/1/3 127/1/3
f 129/1/3 127/1/3 125/1/3
f 130/1/3 126/1/3 128/1/3
f 131/1/3 129/1/3 125/1/3
f 131/1/3 130/1/3 129/1/3
f 132/1/3 126/1/3 130/1/3
f 132/1/3 130/1/3 131/1/3
f 135/1/3 134/1/3 133/1/3
f 136/1/3 134/1/3 135/1/3
f 137/1/3 135/1/3 133/1/3
f 138/1/3 134/1/3 136/1/3
f 139/1/3 137/1/3 133/1/3
f 139/1/3 138/1/3 137/1/3
f 140/1/3 134/1/3 138/1/3
f 140/1/3 138/1/3 139/1/3
f 141/1/4 142/1/4 143/1/4
f 143/1/4 142/1/4 144/1/4
f 141/1/4 143/1/4 145/1/4
f 144/1/4 142/1/4 146/1/4
f 141/1/4 145/1/4 147/1/4
f 145/1/4 146/1/4 147/1/4
f 146/1/4 142/1/4 148/1/4
f 147/1/4 146/1/4 148/1/4
f 149/1/4 150/1/4 151/1/4
f 151/1/4 150/1/4 152/1/4
f 149/1/4 151/1/4 153/1/4
f 152/1/4 150/1/4 154/1/4
f 149/1/4 153/1/4 155/1/4
f 153/1/4 154/1/4 155/1/4
f 154/1/4 150/1/4 156/1/4
f 155/1/4 154/1/4 156/1/4
f 157/1/4 158/1/4 159/1/4
f 159/1/4 158/1/4 160/1/4
f 157/1/4 159/1/4 161/1/4
f 160/1/4 158/1/4 162/1/4
f 157/1/4 161/1/4 163/1/4
f 161/1/4 162/1/4 163/1/4
f 162/1/4 158/1/4 164/1/4
f 163/1/4 162/1/4 164/1/4
f 165/1/4 166/1/4 167/1/4
f 167/1/4 166/1/4 168/1/4
f 171/1/5 170/1/5 169/1/5
f 172/1/5 170/1/5 171/1/5
f 175/1/5 174/1/5 173/1/5
f 176/1/5 174/1/5 175/1/5
f 179/1/5 178/1/5 177/1/5
f 180/1/5 178/1/5 179/1/5
f 183/1/5 182/1/5 181/1/5
f 184/1/5 182/1/5 183/1/5
f 187/1/5 186/1/5 185/1/5
f 188/1/5 186/1/5 187/1/5
f 191/1/5 190/1/5 189/1/5
f 192/1/5 190/1/5 191/1/5
f 195/1/5 194/1/5 193/1/5
f 196/1/5 194/1/5 195/1/5
f 199/2/5 198/2/5 197/2/5
f 200/2/5 198/2/5 199/2/5
f 203/2/5 202/2/5 201/2/5
f 204/2/5 202/2/5 203/2/5
f 207/2/5 206/2/5 205/2/5
f 208/2/5 206/2/5 207/2/5
f 211/1/5 210/1/5 209/1/5
f 212/1/5 210/1/5 211/1/5
f 213/1/6 214/1/6 215/1/6
f 215/1/6 214/1/6 216/1/6
f 217/2/6 218/2/6 219/2/6
f 219/2/6 218/2/6 220/2/6
f 221/2/6 222/2/6 223/2/6
f 223/2/6 222/2/6 224/2/6
f 225/1/6 226/1/6 227/1/6
f 227/1/6 226/1/6 228/1/6
f 229/1/6 230/1/6 231/1/6
f 231/1/6 230/1/6 232/1/6
f 233/1/6 234/1/6 235/1/6
f 235/1/6 234/1/6 236/1/6
f 237/1/6 238/1/6 239/1/6
f 239/1/6 238/1/6 240/1/6
f 241/1/6 242/1/6 243/1/6
f 243/1/6 242/1/6 244/1/6
f 245/1/6 246/1/6 247/1/6
f 247/1/6 246/1/6 248/1/6
f 249/1/6 250/1/6 251/1/6
f 251/1/6 250/1/6 252/1/6
